<svg width="604" height="532" viewBox="0 0 604 532" fill="none" xmlns="http://www.w3.org/2000/svg">
<g filter="url(#filter0_d_11_1019)">
<path fill-rule="evenodd" clip-rule="evenodd" d="M46.2257 305.296C66.4864 244.514 122.029 163.471 209.359 67.0586C296.515 -29.5289 361.314 -21.6691 399.565 89.9392C437.99 201.373 485.149 287.306 538.42 342.499C591.867 397.692 563.222 449.217 454.583 493.755C345.769 538.469 243.069 533.578 152.594 479.258C61.9452 425.114 25.7904 365.904 46.2257 305.296Z" fill="#2DCC70"/>
<g clip-path="url(#clip0_11_1019)">
<path opacity="0.1" d="M292.087 429.666C395.788 429.666 479.855 421.353 479.855 411.098C479.855 400.842 395.788 392.529 292.087 392.529C188.387 392.529 104.32 400.842 104.32 411.098C104.32 421.353 188.387 429.666 292.087 429.666Z" fill="#2A94F4"/>
<path d="M283.185 124.964H451.285V410.818H283.185V124.964Z" fill="#D3D3D3"/>
<path d="M252.94 110.463H429.57V410.787H252.94V110.463Z" fill="#F2F2F2"/>
<path d="M222.943 96.8941H407.577V410.818H222.943V96.8941Z" fill="#FFBE55"/>
<path opacity="0.33" d="M222.943 96.8941H407.577V410.818H222.943V96.8941Z" fill="white"/>
<path d="M380.093 265.003H250.396V135.18H380.093V265.003ZM259.299 256.123H371.19V144.091H259.299V256.123Z" fill="white"/>
<path d="M245.215 194.301C250.458 201.784 255.7 209.267 260.943 216.781C269.256 228.674 277.57 240.535 285.914 252.428C287.869 255.191 289.792 257.955 291.746 260.749C292.801 262.24 297.082 267.208 298.943 264.103C304.496 254.663 310.359 245.41 316.283 236.219C329.467 215.788 343.271 195.729 358.006 176.384C366.971 164.616 376.308 153.127 386.297 142.228C390.329 137.819 379.41 123.194 376.742 126.082C358.72 145.737 342.62 167.069 327.358 188.898C315.756 205.479 304.651 222.402 294.042 239.635L291.622 243.547C290.412 245.534 290.878 246.652 288.706 243.547C285.635 239.169 282.564 234.791 279.493 230.382C271.18 218.489 262.866 206.628 254.522 194.735C252.567 191.972 250.644 189.208 248.69 186.414C247.697 184.985 243.168 179.831 241.493 183.06C239.88 186.321 243.54 191.91 245.215 194.301Z" fill="#0B4870"/>
<path d="M250.396 304.469H380.093V314.064H250.396V304.469ZM250.396 325.521H380.093V335.116H250.396V325.521ZM250.396 348.841H338.029V358.435H250.396V348.841Z" fill="white"/>
<path d="M183.981 175.329C183.981 175.329 190.744 160.921 187.641 154.369C184.539 147.817 179.39 146.358 173.341 147.445C167.292 148.532 165.183 145.302 164.283 146.203C163.383 147.103 162.701 150.115 163.476 150.115C164.283 150.115 160.902 152.599 161.429 154.369C161.956 156.139 157.241 174.149 170.084 176.291C182.926 178.434 183.981 175.329 183.981 175.329Z" fill="#0B4870"/>
<path d="M147.563 402.341H155.876L156.9 392.746H148.618L147.563 402.341Z" fill="#FCD2B1"/>
<path d="M147.563 398.677C147.563 398.677 140.118 404.732 134.72 404.173C129.323 403.645 129.013 408.272 128.92 410.663H146.136C146.136 410.663 149.61 407.371 151.844 410.663H156.931V398.677C156.9 398.677 152.154 400.82 147.563 398.677Z" fill="#0B4870"/>
<path d="M197.816 402.341H189.534L188.479 392.746H196.792L197.816 402.341Z" fill="#FCD2B1"/>
<path d="M150.417 262.985L146.322 394.237H158.761C158.761 394.237 163.383 302.73 172.41 297.389C182.399 291.49 187.61 394.237 187.61 394.237H198.157C198.157 394.237 195.428 267.084 194.373 262.985C194.032 261.464 157.365 246.528 150.417 262.985Z" fill="#0E538C"/>
<path d="M156.621 188.277C156.621 188.277 168.719 177.098 187.641 186.227C192.263 188.463 194.435 259.445 194.435 263.016C194.435 263.016 178.863 272.269 150.448 263.016C150.417 262.985 155.442 189.084 156.621 188.277Z" fill="#FFBE55"/>
<path d="M201.508 202.871C201.508 202.871 219.562 222.091 223.563 221.128C229.767 219.638 248.318 214.608 248.318 214.608L250.334 218.396C250.334 218.396 231.039 231.127 222.788 231.903C214.536 232.679 194.373 210.478 194.373 210.478L201.508 202.871ZM151.565 209.64C151.565 209.64 137.667 225.755 137.481 230.382C137.295 235.008 149.052 253.732 149.052 253.732L146.353 258.607C146.353 258.607 129.509 240.101 126.779 233.394C124.049 226.687 144.027 202.746 144.027 202.746L151.565 209.64Z" fill="#FCD2B1"/>
<path d="M152.433 212.9L141.855 201.815C141.855 201.815 155.504 184.426 164.562 184.799C171.511 185.078 166.454 204.423 152.433 212.9ZM192.326 212.558L203.028 201.598C203.028 201.598 193.721 185.482 184.663 185.762C177.746 185.948 178.428 203.895 192.326 212.558Z" fill="#FFBE55"/>
<path d="M166.206 169.274V185.327C166.206 188.494 168.781 191.071 171.945 191.071C175.109 191.071 177.684 188.494 177.684 185.327V168.342L166.206 169.274Z" fill="#FCD2B1"/>
<path d="M185.408 154.369C185.408 154.369 191.798 175.329 182.926 178.403C174.054 181.477 166.827 175.08 166.703 170.36C166.703 170.36 160.405 165.734 165.4 162.194C167.044 161.014 168.595 163.374 168.595 165.144C168.595 166.914 169.774 165.61 169.774 164.802V156.853C169.774 156.853 183.64 162.753 185.408 154.369Z" fill="#FFE3CA"/>
<path d="M197.847 398.677C197.847 398.677 205.292 404.732 210.69 404.173C216.087 403.645 216.397 408.272 216.491 410.663H199.274C199.274 410.663 195.8 407.371 193.566 410.663H188.479V398.677C188.479 398.677 193.225 400.82 197.847 398.677Z" fill="#0B4870"/>
<path d="M149.021 253.732C149.021 253.732 152.743 256.247 151.534 260.905C150.324 265.593 146.911 270.065 143.592 269.847C142.445 269.754 141.452 269.413 140.583 268.978C138.691 268.046 137.791 265.78 138.722 263.886C139.001 263.296 139.374 263.016 139.839 263.606C141.111 265.252 146.663 261.774 146.322 258.576C145.981 255.409 143.065 249.695 149.021 253.732Z" fill="#FCD2B1"/>
<path d="M225.3 169.926H250.334V386.754H225.3V169.926Z" fill="#FFBE55"/>
<path d="M225.3 169.926L237.802 144.526L250.303 169.926C250.303 169.926 245.464 172.41 237.802 172.41C230.14 172.41 225.3 169.926 225.3 169.926Z" fill="#FCD2B1"/>
<path d="M232.59 155.114L237.802 144.526L243.013 155.114H232.59Z" fill="#0B4870"/>
<path d="M246.053 410.787H229.581C227.224 410.787 225.3 408.862 225.3 406.502V386.257H250.303V406.502C250.303 408.862 248.411 410.787 246.053 410.787Z" fill="#EC4561"/>
<path d="M225.3 377.252H250.334V392.529H225.3V377.252Z" fill="#D3D3D3"/>
<path d="M250.303 207.311C250.303 207.311 253.684 219.141 248.349 218.986C243.044 218.8 240.562 211.223 250.303 207.311Z" fill="#FFE3CA"/>
</g>
</g>
<defs>
<filter id="filter0_d_11_1019" x="0" y="0" width="603.594" height="532" filterUnits="userSpaceOnUse" color-interpolation-filters="sRGB">
<feFlood flood-opacity="0" result="BackgroundImageFix"/>
<feColorMatrix in="SourceAlpha" type="matrix" values="0 0 0 0 0 0 0 0 0 0 0 0 0 0 0 0 0 0 127 0" result="hardAlpha"/>
<feOffset dy="4"/>
<feGaussianBlur stdDeviation="2"/>
<feComposite in2="hardAlpha" operator="out"/>
<feColorMatrix type="matrix" values="0 0 0 0 0 0 0 0 0 0 0 0 0 0 0 0 0 0 0.25 0"/>
<feBlend mode="normal" in2="BackgroundImageFix" result="effect1_dropShadow_11_1019"/>
<feBlend mode="normal" in="SourceGraphic" in2="effect1_dropShadow_11_1019" result="shape"/>
</filter>
<clipPath id="clip0_11_1019">
<rect width="595.594" height="335.349" fill="white" transform="translate(4 94.3169)"/>
</clipPath>
</defs>
</svg>
