<svg width="20" height="20" viewBox="0 0 20 20" fill="none" xmlns="http://www.w3.org/2000/svg">
<g id="Presentation Board" clip-path="url(#clip0_11_1572)">
<path id="Vector" d="M6.33335 9.13125H8.20002C8.44756 9.13125 8.68495 9.03295 8.85999 8.85796C9.03502 8.68298 9.13335 8.44565 9.13335 8.19819C9.13335 7.95072 9.03502 7.7134 8.85999 7.53841C8.68495 7.36343 8.44756 7.26512 8.20002 7.26512H6.33335C6.08582 7.26512 5.84842 7.36343 5.67339 7.53841C5.49835 7.7134 5.40002 7.95072 5.40002 8.19819C5.40002 8.44565 5.49835 8.68298 5.67339 8.85796C5.84842 9.03295 6.08582 9.13125 6.33335 9.13125ZM19.4 3.53287H11.9334V2.59981C11.9334 2.35235 11.835 2.11502 11.66 1.94004C11.485 1.76505 11.2476 1.66675 11 1.66675C10.7525 1.66675 10.5151 1.76505 10.3401 1.94004C10.165 2.11502 10.0667 2.35235 10.0667 2.59981V3.53287H2.60002C2.35248 3.53287 2.11509 3.63118 1.94005 3.80616C1.76502 3.98114 1.66669 4.21847 1.66669 4.46594V13.7966C1.66669 14.539 1.96169 15.2509 2.48679 15.7759C3.01189 16.3008 3.72408 16.5958 4.46669 16.5958H8.75069L6.60402 18.7325C6.51654 18.8192 6.44711 18.9224 6.39972 19.0361C6.35234 19.1498 6.32794 19.2718 6.32794 19.3949C6.32794 19.5181 6.35234 19.6401 6.39972 19.7538C6.44711 19.8675 6.51654 19.9707 6.60402 20.0574C6.69079 20.1449 6.79401 20.2143 6.90775 20.2617C7.02148 20.309 7.14348 20.3334 7.26669 20.3334C7.3899 20.3334 7.51189 20.309 7.62563 20.2617C7.73936 20.2143 7.84259 20.1449 7.92935 20.0574L10.0667 17.9114V19.3949C10.0667 19.6424 10.165 19.8797 10.3401 20.0547C10.5151 20.2297 10.7525 20.328 11 20.328C11.2476 20.328 11.485 20.2297 11.66 20.0547C11.835 19.8797 11.9334 19.6424 11.9334 19.3949V17.9114L14.0707 20.0574C14.1575 20.1449 14.2607 20.2143 14.3744 20.2617C14.4881 20.309 14.6101 20.3334 14.7334 20.3334C14.8566 20.3334 14.9786 20.309 15.0923 20.2617C15.206 20.2143 15.3093 20.1449 15.396 20.0574C15.4835 19.9707 15.5529 19.8675 15.6003 19.7538C15.6477 19.6401 15.6721 19.5181 15.6721 19.3949C15.6721 19.2718 15.6477 19.1498 15.6003 19.0361C15.5529 18.9224 15.4835 18.8192 15.396 18.7325L13.2494 16.5958H17.5334C18.276 16.5958 18.9881 16.3008 19.5133 15.7759C20.0384 15.2509 20.3334 14.539 20.3334 13.7966V4.46594C20.3334 4.21847 20.235 3.98114 20.06 3.80616C19.885 3.63118 19.6476 3.53287 19.4 3.53287ZM18.4667 13.7966C18.4667 14.044 18.3684 14.2814 18.1933 14.4563C18.0183 14.6313 17.7809 14.7296 17.5334 14.7296H4.46669C4.21915 14.7296 3.98175 14.6313 3.80672 14.4563C3.63169 14.2814 3.53335 14.044 3.53335 13.7966V5.399H18.4667V13.7966ZM6.33335 12.8635H11.9334C12.1809 12.8635 12.4183 12.7652 12.5933 12.5902C12.7684 12.4152 12.8667 12.1779 12.8667 11.9304C12.8667 11.683 12.7684 11.4456 12.5933 11.2707C12.4183 11.0957 12.1809 10.9974 11.9334 10.9974H6.33335C6.08582 10.9974 5.84842 11.0957 5.67339 11.2707C5.49835 11.4456 5.40002 11.683 5.40002 11.9304C5.40002 12.1779 5.49835 12.4152 5.67339 12.5902C5.84842 12.7652 6.08582 12.8635 6.33335 12.8635Z" fill="#3598DB"/>
</g>
<defs>
<clipPath id="clip0_11_1572">
<rect width="20" height="20" fill="white"/>
</clipPath>
</defs>
</svg>
