<svg width="20" height="20" viewBox="0 0 20 20" fill="none" xmlns="http://www.w3.org/2000/svg">
<g id="profile">
<path id="Vector" d="M8.20706 12.9583C9.40679 12.8616 10.612 12.8616 11.8118 12.9583C12.4651 12.9963 13.1153 13.0781 13.7583 13.2029C15.1497 13.4847 16.0581 13.9443 16.4474 14.6857C16.7398 15.2644 16.7398 15.9532 16.4474 16.5318C16.0581 17.2732 15.1857 17.7625 13.7439 18.0146C13.1014 18.1442 12.451 18.2284 11.7973 18.2667C11.1917 18.3334 10.5862 18.3334 9.97336 18.3334H8.87033C8.63963 18.3038 8.41614 18.2889 8.19985 18.2889C7.54616 18.2553 6.89565 18.1735 6.25332 18.0443C4.86191 17.7774 3.95353 17.3029 3.56422 16.5615C3.41394 16.2743 3.33471 15.9534 3.33343 15.6273C3.33039 15.2992 3.40722 14.9755 3.55701 14.6857C3.93911 13.9443 4.84749 13.4624 6.25332 13.2029C6.89848 13.0763 7.55121 12.9946 8.20706 12.9583ZM10.0022 1.66675C12.419 1.66675 14.3783 3.6816 14.3783 6.16704C14.3783 8.65249 12.419 10.6673 10.0022 10.6673C7.58535 10.6673 5.62611 8.65249 5.62611 6.16704C5.62611 3.6816 7.58535 1.66675 10.0022 1.66675Z" fill="#3598DB"/>
</g>
</svg>
