<svg width="615" height="542" viewBox="0 0 615 542" fill="none" xmlns="http://www.w3.org/2000/svg">
<g filter="url(#filter0_d_11_1168)">
<path fill-rule="evenodd" clip-rule="evenodd" d="M47.0315 311.122C67.6789 249.18 124.281 166.591 213.278 68.3384C302.097 -30.0924 368.133 -22.0827 407.114 91.6556C446.272 205.216 494.331 292.789 548.619 349.035C603.085 405.281 573.894 457.79 463.182 503.178C352.292 548.745 247.631 543.761 155.43 488.405C63.051 433.226 26.2062 372.886 47.0315 311.122Z" fill="#2D3E50"/>
<g clip-path="url(#clip0_11_1168)">
<path opacity="0.1" d="M297.585 437.866C403.265 437.866 488.936 429.394 488.936 418.943C488.936 408.492 403.265 400.02 297.585 400.02C191.905 400.02 106.235 408.492 106.235 418.943C106.235 429.394 191.905 437.866 297.585 437.866Z" fill="#2A94F4"/>
<path d="M288.513 127.349H459.821V418.658H288.513V127.349Z" fill="#D3D3D3"/>
<path d="M257.69 112.571H437.692V418.626H257.69V112.571Z" fill="#F2F2F2"/>
<path d="M227.121 98.7432H415.279V418.658H227.121V98.7432Z" fill="#FFBE55"/>
<path opacity="0.33" d="M227.121 98.7432H415.279V418.658H227.121V98.7432Z" fill="white"/>
<path d="M387.27 270.061H255.098V137.76H387.27V270.061ZM264.171 261.011H378.197V146.841H264.171V261.011Z" fill="white"/>
<path d="M249.819 198.009C255.161 205.635 260.504 213.261 265.846 220.918C274.319 233.038 282.791 245.126 291.294 257.245C293.286 260.061 295.246 262.878 297.238 265.725C298.312 267.244 302.675 272.307 304.572 269.143C310.23 259.523 316.205 250.094 322.243 240.727C335.678 219.906 349.746 199.464 364.762 179.75C373.898 167.757 383.413 156.049 393.593 144.943C397.702 140.449 386.575 125.545 383.856 128.488C365.489 148.518 349.082 170.257 333.529 192.503C321.706 209.4 310.388 226.646 299.577 244.208L297.111 248.195C295.878 250.22 296.352 251.359 294.14 248.195C291.01 243.733 287.88 239.272 284.751 234.778C276.278 222.659 267.806 210.571 259.303 198.452C257.311 195.635 255.351 192.819 253.359 189.971C252.348 188.516 247.732 183.263 246.025 186.554C244.381 189.876 248.112 195.572 249.819 198.009Z" fill="#0B4870"/>
<path d="M255.098 310.279H387.27V320.057H255.098V310.279ZM255.098 331.734H387.27V341.511H255.098V331.734ZM255.098 355.498H344.403V365.276H255.098V355.498Z" fill="white"/>
<path d="M187.416 178.674C187.416 178.674 194.307 163.992 191.146 157.315C187.985 150.638 182.737 149.151 176.573 150.259C170.408 151.366 168.259 148.075 167.342 148.993C166.425 149.911 165.73 152.98 166.52 152.98C167.342 152.98 163.896 155.511 164.433 157.315C164.971 159.119 160.166 177.472 173.253 179.655C186.341 181.839 187.416 178.674 187.416 178.674Z" fill="#0B4870"/>
<path d="M150.303 410.019H158.775L159.818 400.242H151.378L150.303 410.019Z" fill="#FCD2B1"/>
<path d="M150.303 406.286C150.303 406.286 142.716 412.456 137.215 411.886C131.715 411.348 131.398 416.063 131.304 418.5H148.848C148.848 418.5 152.389 415.146 154.665 418.5H159.85V406.286C159.818 406.286 154.981 408.469 150.303 406.286Z" fill="#0B4870"/>
<path d="M201.515 410.019H193.074L192 400.242H200.472L201.515 410.019Z" fill="#FCD2B1"/>
<path d="M153.211 268.004L149.038 401.76H161.715C161.715 401.76 166.425 308.507 175.624 303.065C185.803 297.052 191.114 401.76 191.114 401.76H201.863C201.863 401.76 199.081 272.181 198.006 268.004C197.658 266.453 160.292 251.233 153.211 268.004Z" fill="#0E538C"/>
<path d="M159.534 191.87C159.534 191.87 171.862 180.478 191.146 189.781C195.856 192.06 198.069 264.396 198.069 268.035C198.069 268.035 182.2 277.465 153.243 268.035C153.211 268.004 158.332 192.692 159.534 191.87Z" fill="#FFBE55"/>
<path d="M205.277 206.742C205.277 206.742 223.675 226.329 227.753 225.348C234.076 223.83 252.98 218.703 252.98 218.703L255.035 222.564C255.035 222.564 235.372 235.538 226.963 236.329C218.554 237.12 198.006 214.495 198.006 214.495L205.277 206.742ZM154.381 213.64C154.381 213.64 140.218 230.063 140.029 234.778C139.839 239.493 151.82 258.574 151.82 258.574L149.07 263.542C149.07 263.542 131.904 244.683 129.122 237.848C126.34 231.013 146.699 206.616 146.699 206.616L154.381 213.64Z" fill="#FCD2B1"/>
<path d="M155.266 216.963L144.486 205.666C144.486 205.666 158.395 187.946 167.626 188.326C174.708 188.611 169.555 208.324 155.266 216.963ZM195.919 216.615L206.826 205.445C206.826 205.445 197.342 189.022 188.111 189.307C181.062 189.497 181.757 207.786 195.919 216.615Z" fill="#FFBE55"/>
<path d="M169.302 172.504V188.864C169.302 192.091 171.926 194.718 175.15 194.718C178.375 194.718 180.998 192.091 180.998 188.864V171.555L169.302 172.504Z" fill="#FCD2B1"/>
<path d="M188.87 157.315C188.87 157.315 195.382 178.674 186.341 181.807C177.3 184.94 169.934 178.421 169.808 173.612C169.808 173.612 163.39 168.897 168.48 165.289C170.155 164.087 171.736 166.492 171.736 168.295C171.736 170.099 172.937 168.77 172.937 167.947V159.847C172.937 159.847 187.068 165.859 188.87 157.315Z" fill="#FFE3CA"/>
<path d="M201.547 406.286C201.547 406.286 209.134 412.456 214.634 411.886C220.135 411.348 220.451 416.063 220.546 418.5H203.001C203.001 418.5 199.46 415.146 197.184 418.5H192V406.286C192 406.286 196.836 408.469 201.547 406.286Z" fill="#0B4870"/>
<path d="M151.788 258.574C151.788 258.574 155.582 261.137 154.349 265.884C153.116 270.662 149.639 275.219 146.256 274.997C145.087 274.902 144.075 274.554 143.19 274.111C141.261 273.162 140.345 270.852 141.293 268.921C141.578 268.32 141.957 268.035 142.431 268.637C143.727 270.314 149.386 266.77 149.038 263.51C148.69 260.283 145.719 254.46 151.788 258.574Z" fill="#FCD2B1"/>
<path d="M229.524 173.169H255.035V394.134H229.524V173.169Z" fill="#FFBE55"/>
<path d="M229.524 173.168L242.263 147.284L255.003 173.168C255.003 173.168 250.072 175.7 242.263 175.7C234.455 175.7 229.524 173.168 229.524 173.168Z" fill="#FCD2B1"/>
<path d="M236.953 158.075L242.263 147.284L247.574 158.075H236.953Z" fill="#0B4870"/>
<path d="M250.672 418.626H233.886C231.484 418.626 229.524 416.665 229.524 414.26V393.628H255.003V414.26C255.003 416.665 253.075 418.626 250.672 418.626Z" fill="#EC4561"/>
<path d="M229.524 384.452H255.035V400.02H229.524V384.452Z" fill="#D3D3D3"/>
<path d="M255.003 211.267C255.003 211.267 258.449 223.323 253.012 223.165C247.606 222.975 245.077 215.254 255.003 211.267Z" fill="#FFE3CA"/>
</g>
</g>
<defs>
<filter id="filter0_d_11_1168" x="0" y="0" width="614.96" height="542" filterUnits="userSpaceOnUse" color-interpolation-filters="sRGB">
<feFlood flood-opacity="0" result="BackgroundImageFix"/>
<feColorMatrix in="SourceAlpha" type="matrix" values="0 0 0 0 0 0 0 0 0 0 0 0 0 0 0 0 0 0 127 0" result="hardAlpha"/>
<feOffset dy="4"/>
<feGaussianBlur stdDeviation="2"/>
<feComposite in2="hardAlpha" operator="out"/>
<feColorMatrix type="matrix" values="0 0 0 0 0 0 0 0 0 0 0 0 0 0 0 0 0 0 0.25 0"/>
<feBlend mode="normal" in2="BackgroundImageFix" result="effect1_dropShadow_11_1168"/>
<feBlend mode="normal" in="SourceGraphic" in2="effect1_dropShadow_11_1168" result="shape"/>
</filter>
<clipPath id="clip0_11_1168">
<rect width="606.96" height="341.749" fill="white" transform="translate(4 96.1168)"/>
</clipPath>
</defs>
</svg>
