<svg width="669" height="590" viewBox="0 0 669 590" fill="none" xmlns="http://www.w3.org/2000/svg">
<g filter="url(#filter0_d_11_1308)">
<path fill-rule="evenodd" clip-rule="evenodd" d="M50.8593 338.797C73.3433 271.345 134.98 181.41 231.894 74.4172C328.613 -32.7692 400.523 -24.0469 442.971 99.8085C485.613 223.47 537.947 318.833 597.064 380.082C656.375 441.332 624.587 498.511 504.027 547.936C383.273 597.556 269.302 592.129 168.9 531.849C68.3038 471.763 28.1816 406.055 50.8593 338.797Z" fill="#3598DB"/>
<g clip-path="url(#clip0_11_1308)">
<path opacity="0.1" d="M323.7 476.814C438.78 476.814 532.071 467.589 532.071 456.208C532.071 444.828 438.78 435.603 323.7 435.603C208.62 435.603 115.329 444.828 115.329 456.208C115.329 467.589 208.62 476.814 323.7 476.814Z" fill="#2A94F4"/>
<path d="M313.82 138.677H500.367V455.898H313.82V138.677Z" fill="#D3D3D3"/>
<path d="M280.256 122.585H476.269V455.864H280.256V122.585Z" fill="#F2F2F2"/>
<path d="M246.968 107.527H451.862V455.898H246.968V107.527Z" fill="#FFBE55"/>
<path opacity="0.33" d="M246.968 107.527H451.862V455.898H246.968V107.527Z" fill="white"/>
<path d="M421.362 294.083H277.434V150.014H421.362V294.083ZM287.313 284.228H411.483V159.903H287.313V284.228Z" fill="white"/>
<path d="M271.685 215.622C277.503 223.926 283.32 232.231 289.138 240.57C298.364 253.767 307.59 266.93 316.85 280.127C319.018 283.194 321.153 286.261 323.321 289.362C324.492 291.016 329.243 296.53 331.308 293.084C337.47 282.608 343.976 272.34 350.551 262.14C365.182 239.467 380.501 217.207 396.852 195.739C406.801 182.68 417.163 169.93 428.247 157.836C432.723 152.943 420.605 136.713 417.645 139.917C397.644 161.729 379.778 185.402 362.841 209.626C349.966 228.027 337.642 246.806 325.869 265.931L323.184 270.272C321.841 272.478 322.358 273.718 319.948 270.272C316.54 265.414 313.132 260.555 309.724 255.662C300.498 242.465 291.272 229.302 282.012 216.104C279.843 213.037 277.709 209.971 275.54 206.869C274.439 205.284 269.413 199.564 267.554 203.148C265.764 206.766 269.826 212.969 271.685 215.622Z" fill="#0B4870"/>
<path d="M277.434 337.879H421.362V348.527H277.434V337.879ZM277.434 361.242H421.362V371.889H277.434V361.242ZM277.434 387.12H374.683V397.767H277.434V387.12Z" fill="white"/>
<path d="M203.731 194.568C203.731 194.568 211.235 178.579 207.793 171.309C204.35 164.038 198.636 162.418 191.923 163.625C185.21 164.831 182.87 161.247 181.871 162.246C180.873 163.245 180.116 166.588 180.976 166.588C181.871 166.588 178.119 169.345 178.704 171.309C179.289 173.273 174.057 193.259 188.309 195.636C202.56 198.014 203.731 194.568 203.731 194.568Z" fill="#0B4870"/>
<path d="M163.316 446.491H172.542L173.678 435.844H164.487L163.316 446.491Z" fill="#FCD2B1"/>
<path d="M163.316 442.425C163.316 442.425 155.055 449.145 149.065 448.524C143.075 447.939 142.731 453.073 142.627 455.726H161.733C161.733 455.726 165.589 452.074 168.067 455.726H173.713V442.425C173.678 442.425 168.411 444.803 163.316 442.425Z" fill="#0B4870"/>
<path d="M219.084 446.491H209.893L208.722 435.844H217.948L219.084 446.491Z" fill="#FCD2B1"/>
<path d="M166.484 291.843L161.94 437.498H175.744C175.744 437.498 180.873 335.95 190.891 330.023C201.975 323.476 207.759 437.498 207.759 437.498H219.463C219.463 437.498 216.433 296.392 215.263 291.843C214.884 290.155 174.195 273.58 166.484 291.843Z" fill="#0E538C"/>
<path d="M173.368 208.937C173.368 208.937 186.794 196.532 207.793 206.663C212.922 209.144 215.332 287.915 215.332 291.878C215.332 291.878 198.051 302.146 166.518 291.878C166.484 291.843 172.06 209.833 173.368 208.937Z" fill="#FFBE55"/>
<path d="M223.181 225.132C223.181 225.132 243.216 246.462 247.656 245.394C254.541 243.74 275.127 238.157 275.127 238.157L277.365 242.361C277.365 242.361 255.953 256.489 246.796 257.351C237.639 258.212 215.263 233.574 215.263 233.574L223.181 225.132ZM167.757 232.644C167.757 232.644 152.335 250.528 152.129 255.662C151.922 260.796 164.969 281.575 164.969 281.575L161.974 286.985C161.974 286.985 143.281 266.448 140.252 259.005C137.223 251.562 159.392 224.994 159.392 224.994L167.757 232.644Z" fill="#FCD2B1"/>
<path d="M168.721 236.262L156.982 223.961C156.982 223.961 172.129 204.664 182.181 205.078C189.892 205.388 184.281 226.855 168.721 236.262ZM212.991 235.883L224.867 223.719C224.867 223.719 214.54 205.836 204.488 206.146C196.811 206.353 197.569 226.269 212.991 235.883Z" fill="#FFBE55"/>
<path d="M184.006 187.849V205.663C184.006 209.178 186.863 212.038 190.374 212.038C193.885 212.038 196.743 209.178 196.743 205.663V186.815L184.006 187.849Z" fill="#FCD2B1"/>
<path d="M205.314 171.309C205.314 171.309 212.406 194.568 202.56 197.979C192.715 201.391 184.694 194.292 184.556 189.055C184.556 189.055 177.568 183.92 183.111 179.992C184.935 178.683 186.656 181.301 186.656 183.266C186.656 185.23 187.964 183.782 187.964 182.887V174.065C187.964 174.065 203.352 180.612 205.314 171.309Z" fill="#FFE3CA"/>
<path d="M219.119 442.425C219.119 442.425 227.38 449.145 233.37 448.524C239.36 447.939 239.704 453.073 239.808 455.726H220.702C220.702 455.726 216.847 452.074 214.368 455.726H208.722V442.425C208.722 442.425 213.989 444.803 219.119 442.425Z" fill="#0B4870"/>
<path d="M164.934 281.575C164.934 281.575 169.065 284.366 167.723 289.535C166.38 294.738 162.594 299.7 158.91 299.459C157.636 299.355 156.535 298.976 155.571 298.494C153.471 297.46 152.473 294.945 153.506 292.843C153.815 292.188 154.228 291.878 154.745 292.532C156.156 294.359 162.318 290.499 161.94 286.95C161.561 283.436 158.325 277.095 164.934 281.575Z" fill="#FCD2B1"/>
<path d="M249.584 188.572H277.365V429.193H249.584V188.572Z" fill="#FFBE55"/>
<path d="M249.584 188.572L263.457 160.385L277.33 188.572C277.33 188.572 271.96 191.329 263.457 191.329C254.954 191.329 249.584 188.572 249.584 188.572Z" fill="#FCD2B1"/>
<path d="M257.674 172.136L263.457 160.385L269.241 172.136H257.674Z" fill="#0B4870"/>
<path d="M272.614 455.864H254.335C251.719 455.864 249.584 453.728 249.584 451.109V428.642H277.33V451.109C277.33 453.728 275.23 455.864 272.614 455.864Z" fill="#EC4561"/>
<path d="M249.584 418.649H277.365V435.603H249.584V418.649Z" fill="#D3D3D3"/>
<path d="M277.33 230.06C277.33 230.06 281.083 243.188 275.162 243.016C269.275 242.809 266.521 234.402 277.33 230.06Z" fill="#FFE3CA"/>
</g>
</g>
<defs>
<filter id="filter0_d_11_1308" x="0" y="0" width="668.95" height="589.5" filterUnits="userSpaceOnUse" color-interpolation-filters="sRGB">
<feFlood flood-opacity="0" result="BackgroundImageFix"/>
<feColorMatrix in="SourceAlpha" type="matrix" values="0 0 0 0 0 0 0 0 0 0 0 0 0 0 0 0 0 0 127 0" result="hardAlpha"/>
<feOffset dy="4"/>
<feGaussianBlur stdDeviation="2"/>
<feComposite in2="hardAlpha" operator="out"/>
<feColorMatrix type="matrix" values="0 0 0 0 0 0 0 0 0 0 0 0 0 0 0 0 0 0 0.25 0"/>
<feBlend mode="normal" in2="BackgroundImageFix" result="effect1_dropShadow_11_1308"/>
<feBlend mode="normal" in="SourceGraphic" in2="effect1_dropShadow_11_1308" result="shape"/>
</filter>
<clipPath id="clip0_11_1308">
<rect width="660.95" height="372.148" fill="white" transform="translate(4 104.667)"/>
</clipPath>
</defs>
</svg>
