<svg width="21" height="21" viewBox="0 0 21 21" fill="none" xmlns="http://www.w3.org/2000/svg">
<g id="Search">
<g id="Layer 2">
<path id="search" d="M17.7583 16.8788L14.925 13.9125C15.8392 12.6897 16.3352 11.1796 16.3333 9.625C16.3333 8.24053 15.9423 6.88716 15.2098 5.73601C14.4773 4.58487 13.4361 3.68766 12.2179 3.15785C10.9997 2.62803 9.65927 2.48941 8.36607 2.75951C7.07286 3.0296 5.88497 3.69629 4.95262 4.67526C4.02027 5.65422 3.38534 6.9015 3.1281 8.25937C2.87087 9.61724 3.00289 11.0247 3.50747 12.3038C4.01206 13.5829 4.86654 14.6761 5.96287 15.4453C7.0592 16.2145 8.34813 16.625 9.66667 16.625C11.1472 16.6269 12.5854 16.1061 13.75 15.1463L16.575 18.1213C16.6525 18.2033 16.7446 18.2684 16.8462 18.3128C16.9477 18.3572 17.0567 18.3801 17.1667 18.3801C17.2767 18.3801 17.3856 18.3572 17.4872 18.3128C17.5887 18.2684 17.6809 18.2033 17.7583 18.1213C17.8364 18.0399 17.8984 17.9431 17.9407 17.8365C17.9831 17.7299 18.0048 17.6155 18.0048 17.5C18.0048 17.3845 17.9831 17.2701 17.9407 17.1635C17.8984 17.0569 17.8364 16.9601 17.7583 16.8788ZM4.66667 9.625C4.66667 8.58665 4.95991 7.57162 5.50932 6.70826C6.05873 5.8449 6.83962 5.172 7.75325 4.77464C8.66688 4.37728 9.67222 4.27331 10.6421 4.47588C11.612 4.67845 12.5029 5.17847 13.2022 5.91269C13.9015 6.64692 14.3777 7.58238 14.5706 8.60078C14.7635 9.61918 14.6645 10.6748 14.2861 11.6341C13.9076 12.5934 13.2668 13.4133 12.4445 13.9902C11.6223 14.5671 10.6556 14.875 9.66667 14.875C8.34059 14.875 7.06882 14.3219 6.13114 13.3373C5.19345 12.3527 4.66667 11.0174 4.66667 9.625Z" fill="white"/>
</g>
</g>
</svg>
