<svg width="109" height="83" viewBox="0 0 109 83" fill="none" xmlns="http://www.w3.org/2000/svg">
<g clip-path="url(#clip0_11_627)">
<path d="M72.4407 7.45269L56.1323 29.5824L56.0898 29.6401C59.5373 22.188 54.1384 15.3692 44.5954 15.2283C41.3223 15.1796 38.0477 15.2353 34.7732 15.2381C33.5418 15.2388 33.5016 15.701 33.5008 16.8692L33.3627 49.6899L33.3589 50.5368L26.6482 46.0325C25.0883 44.2803 24.2401 42.0764 24.2499 39.8035L24.3357 17.7133C24.3455 15.8842 25.1793 14.1439 26.6345 12.9117C30.8931 9.30429 40.1964 4.70348 46.6022 1.63863C48.2561 0.846696 50.0254 0.341524 51.8266 0.123813C53.1892 -0.0417594 54.5701 -0.0417594 55.935 0.123813C57.5033 0.313341 59.0487 0.721284 60.5191 1.34976L72.2973 7.37942L72.4407 7.45269Z" fill="#2DCC70"/>
<path d="M73.8094 8.32934L51.5278 40.3722C51.5278 40.3722 50.1401 42.1963 47.6933 42.1963C45.0514 42.1963 42.0432 42.1534 39.3983 42.1738V40.2348C48.4413 40.2348 47.4247 40.4941 49.7805 38.3071L56.0899 29.6403L56.1323 29.5825L72.2973 7.37958L72.3163 7.35352C72.7366 7.629 73.3891 8.05315 73.8094 8.32934Z" fill="#2D3E50"/>
<path d="M40.5296 42.9679V54.1902L33.359 50.537C33.359 50.537 33.3476 49.8402 33.359 49.6901H33.3628L39.3983 49.7324V42.9679H40.5296Z" fill="#2D3E50"/>
<path d="M84.25 40.9161C84.25 43.9317 83.8889 44.8089 82.2895 46.2934L73.8094 51.0309V8.32935C73.8094 8.32935 82.4003 13.6065 82.4693 13.6699C84.2227 15.2989 84.1453 16.7228 84.121 18.4814L84.25 40.9161Z" fill="#3598DB"/>
<path d="M67.5182 49.5773C67.5 52.3716 67.4727 54.2909 67.4318 54.3169C65.4159 55.5668 63.6891 56.5997 62.1625 57.4255C55.558 61.0011 52.7053 60.7109 46.4095 57.4255C44.7373 56.5532 42.8224 55.4689 40.5296 54.1901V42.9678C40.5296 42.9678 50.9261 42.9587 56.121 42.9213C56.5777 42.9227 56.9252 42.8558 57.1961 42.4584L67.233 27.7549C67.3726 27.5442 67.5509 27.628 67.5509 27.8443C67.5509 27.8443 67.5683 41.9617 67.5182 49.5773Z" fill="#3598DB"/>
<path d="M73.811 49.6344L73.8094 51.0309L67.4318 54.317V49.5767L67.5183 49.5774L73.8094 49.6344H73.811Z" fill="#2D3E50"/>
<path d="M49.6765 26.87C49.6765 27.1532 49.6538 27.4013 49.6029 27.6648C48.3829 29.789 47.0355 31.8435 45.6781 33.8931C45.424 34.294 45.1228 34.4645 44.6038 34.4631C43.0811 34.4603 41.5576 34.5075 40.0349 34.5512C39.5857 34.5639 39.3961 34.4272 39.3983 33.9812C39.4158 30.5154 39.412 26.293 39.4196 22.7962C39.4196 22.7962 39.4196 22.7723 39.4203 22.73V22.5792H39.4226C39.6047 22.5672 49.6765 21.95 49.6765 26.87Z" fill="#2DCC70"/>
<path d="M49.6029 27.6647C48.3131 22.4833 44.0978 22.7398 39.4196 22.7961C39.4196 22.7961 39.4196 22.7722 39.4203 22.7299C39.4211 22.6926 39.4218 22.6411 39.4226 22.5791C39.4264 22.2593 39.4332 21.659 39.4332 21.2813C39.4332 21.0185 39.698 21.0319 39.8414 21.0312C41.5637 21.0277 43.2905 20.9854 45.009 21.077C48.6325 21.2391 51.3525 24.6661 49.6029 27.6647Z" fill="#2D3E50"/>
<path d="M51.5278 40.3722C51.5278 40.3722 50.1401 42.1963 47.6933 42.1963C45.0514 42.1963 42.0432 42.1534 39.3983 42.1738V40.2348C48.4413 40.2348 47.4247 40.4941 49.7805 38.3072L56.0899 29.6403C59.5374 22.1881 54.1385 15.3694 44.5955 15.2284C41.3224 15.1798 38.0478 15.2355 34.7733 15.2383C33.5419 15.239 33.5017 15.7012 33.5009 16.8694L33.3628 49.6901L39.3983 49.7324V42.9678H40.5296C40.5296 42.9678 50.9261 42.9587 56.121 42.9213C56.5777 42.9228 56.9252 42.8558 57.1961 42.4584L67.233 27.7549C67.3726 27.5442 67.5509 27.6281 67.5509 27.8444C67.5509 27.8444 67.5683 41.9617 67.5183 49.5774L73.8094 49.6344V8.32935L51.5278 40.3722ZM39.4196 22.7962C39.4196 22.7962 39.4196 22.7722 39.4203 22.7299V22.5792H39.4226C39.4264 22.2593 39.4332 21.659 39.4332 21.2814C39.4332 21.0185 39.698 21.0319 39.8414 21.0312C41.5637 21.0277 43.2905 20.9854 45.009 21.077C48.6325 21.2391 51.3525 24.6661 49.6029 27.6647C48.3829 29.789 47.0355 31.8435 45.6781 33.8931C45.424 34.294 45.1228 34.4645 44.6038 34.463C43.0811 34.4602 41.5576 34.5074 40.0349 34.5511C39.5857 34.5638 39.3961 34.4271 39.3983 33.9811C39.4158 30.5154 39.412 26.2929 39.4196 22.7962Z" fill="white"/>
</g>
<path d="M14.8411 72.952C14.3771 72.952 13.9211 72.896 13.4731 72.784C13.0331 72.672 12.6171 72.528 12.2251 72.352C12.0491 73.072 11.8971 73.86 11.7691 74.716C11.7371 74.956 11.6891 75.176 11.6251 75.376C11.5611 75.568 11.4611 75.724 11.3251 75.844C11.1891 75.964 10.9891 76.024 10.7251 76.024C10.4771 76.024 10.3131 75.928 10.2331 75.736C10.1531 75.544 10.1131 75.308 10.1131 75.028C10.1131 74.94 10.1451 74.712 10.2091 74.344C10.2731 73.976 10.3531 73.532 10.4491 73.012C10.5451 72.484 10.6451 71.94 10.7491 71.38C10.4211 71.052 10.2571 70.752 10.2571 70.48C10.2571 70.344 10.2971 70.216 10.3771 70.096C10.4651 69.968 10.6331 69.904 10.8811 69.904C10.9131 69.904 10.9571 69.916 11.0131 69.94C11.0931 69.492 11.1611 69.092 11.2171 68.74C11.2811 68.38 11.3171 68.12 11.3251 67.96C11.3411 67.656 11.3891 67.432 11.4691 67.288C11.5491 67.136 11.6491 67.036 11.7691 66.988C11.8971 66.932 12.0251 66.904 12.1531 66.904C12.3211 66.904 12.4491 66.94 12.5371 67.012C12.6251 67.084 12.6691 67.244 12.6691 67.492C12.6691 67.732 12.6651 67.952 12.6571 68.152C13.0491 67.48 13.4571 67.008 13.8811 66.736C14.3051 66.456 14.7691 66.316 15.2731 66.316C15.7691 66.316 16.2011 66.452 16.5691 66.724C16.9371 66.996 17.2211 67.388 17.4211 67.9C17.6291 68.404 17.7331 69.012 17.7331 69.724C17.7331 70.812 17.4811 71.624 16.9771 72.16C16.4811 72.688 15.7691 72.952 14.8411 72.952ZM12.6331 70.936C12.9291 71.096 13.2451 71.236 13.5811 71.356C13.9171 71.468 14.2611 71.524 14.6131 71.524C15.1811 71.524 15.5971 71.376 15.8611 71.08C16.1331 70.784 16.2691 70.296 16.2691 69.616C16.2691 68.408 15.9051 67.804 15.1771 67.804C14.7131 67.804 14.2611 68.064 13.8211 68.584C13.3891 69.104 12.9931 69.888 12.6331 70.936ZM19.725 76.456C19.469 76.456 19.237 76.384 19.029 76.24C18.821 76.104 18.657 75.924 18.537 75.7C18.417 75.468 18.357 75.22 18.357 74.956C18.357 74.46 18.465 73.976 18.681 73.504C18.905 73.032 19.197 72.584 19.557 72.16C19.917 71.736 20.309 71.348 20.733 70.996C21.165 70.636 21.593 70.328 22.017 70.072C22.449 69.816 22.841 69.616 23.193 69.472C23.553 69.328 23.833 69.256 24.033 69.256C24.265 69.256 24.453 69.308 24.597 69.412C24.749 69.508 24.825 69.66 24.825 69.868C24.825 69.932 24.809 69.984 24.777 70.024C24.881 70.048 24.965 70.108 25.029 70.204C25.093 70.3 25.125 70.444 25.125 70.636C25.125 70.716 25.105 70.924 25.065 71.26C25.025 71.596 24.981 72.004 24.933 72.484C24.893 72.964 24.873 73.464 24.873 73.984C24.873 74.064 24.885 74.136 24.909 74.2C24.933 74.256 24.985 74.284 25.065 74.284C25.385 74.284 25.709 74.22 26.037 74.092C26.373 73.956 26.697 73.792 27.009 73.6C27.329 73.4 27.617 73.204 27.873 73.012C28.137 72.812 28.357 72.648 28.533 72.52C28.717 72.384 28.837 72.316 28.893 72.316C29.165 72.316 29.301 72.452 29.301 72.724C29.301 72.796 29.213 72.948 29.037 73.18C28.869 73.404 28.637 73.664 28.341 73.96C28.045 74.248 27.713 74.536 27.345 74.824C26.985 75.104 26.609 75.336 26.217 75.52C25.833 75.704 25.461 75.796 25.101 75.796C24.661 75.796 24.325 75.692 24.093 75.484C23.869 75.276 23.709 74.996 23.613 74.644C23.525 74.284 23.477 73.88 23.469 73.432C23.061 74.016 22.637 74.536 22.197 74.992C21.765 75.44 21.337 75.796 20.913 76.06C20.489 76.324 20.093 76.456 19.725 76.456ZM23.973 70.444C23.189 70.82 22.485 71.252 21.861 71.74C21.237 72.22 20.741 72.724 20.373 73.252C20.013 73.78 19.833 74.288 19.833 74.776C19.833 74.912 19.897 74.98 20.025 74.98C20.177 74.98 20.377 74.892 20.625 74.716C20.881 74.54 21.157 74.308 21.453 74.02C21.749 73.724 22.045 73.396 22.341 73.036C22.637 72.668 22.913 72.292 23.169 71.908C23.425 71.524 23.629 71.156 23.781 70.804C23.837 70.676 23.901 70.556 23.973 70.444ZM28.5661 79.852C28.3421 79.852 28.1661 79.772 28.0381 79.612C27.9181 79.46 27.8581 79.224 27.8581 78.904C27.8581 78.464 27.8981 77.94 27.9781 77.332C28.0581 76.724 28.1661 76.08 28.3021 75.4C28.4381 74.72 28.5861 74.052 28.7461 73.396C28.9381 72.644 29.1261 71.96 29.3101 71.344C29.5021 70.728 29.6941 70.236 29.8861 69.868C30.0861 69.492 30.2861 69.304 30.4861 69.304C30.6701 69.304 30.8301 69.372 30.9661 69.508C31.1101 69.636 31.1821 69.828 31.1821 70.084C31.1821 70.268 31.1341 70.532 31.0381 70.876C30.9421 71.212 30.8221 71.632 30.6781 72.136C30.9501 71.688 31.2301 71.248 31.5181 70.816C31.8141 70.384 32.1141 69.992 32.4181 69.64C32.7221 69.288 33.0181 69.008 33.3061 68.8C33.5941 68.592 33.8661 68.488 34.1221 68.488C34.4261 68.488 34.6941 68.576 34.9261 68.752C35.1661 68.928 35.3541 69.168 35.4901 69.472C35.6261 69.776 35.6941 70.12 35.6941 70.504C35.6941 71.216 35.5661 71.908 35.3101 72.58C35.0541 73.244 34.6981 73.84 34.2421 74.368C33.7941 74.896 33.2701 75.316 32.6701 75.628C32.0701 75.932 31.4221 76.084 30.7261 76.084C30.5261 76.084 30.3421 76.064 30.1741 76.024C30.0141 75.992 29.8661 75.952 29.7301 75.904C29.6341 76.416 29.5421 76.94 29.4541 77.476C29.3741 78.02 29.2901 78.592 29.2021 79.192C29.1061 79.632 28.8941 79.852 28.5661 79.852ZM34.2421 69.904C34.0661 69.904 33.8421 70.024 33.5701 70.264C33.3061 70.504 33.0181 70.82 32.7061 71.212C32.3941 71.596 32.0781 72.016 31.7581 72.472C31.4461 72.92 31.1461 73.36 30.8581 73.792C30.5781 74.224 30.3381 74.6 30.1381 74.92C30.7461 74.856 31.2821 74.696 31.7461 74.44C32.2101 74.176 32.6061 73.856 32.9341 73.48C33.2621 73.104 33.5261 72.708 33.7261 72.292C33.9341 71.868 34.0861 71.456 34.1821 71.056C34.2781 70.656 34.3261 70.308 34.3261 70.012C34.3261 69.94 34.2981 69.904 34.2421 69.904ZM42.6694 70.804C42.6694 71.324 42.3734 71.84 41.7814 72.352C41.1974 72.856 40.2894 73.304 39.0574 73.696C39.0574 73.704 39.0574 73.716 39.0574 73.732C39.0574 73.996 39.0894 74.208 39.1534 74.368C39.2174 74.52 39.3574 74.596 39.5734 74.596C39.8934 74.596 40.2494 74.5 40.6414 74.308C41.0414 74.108 41.4534 73.856 41.8774 73.552C42.3094 73.24 42.7294 72.912 43.1374 72.568C43.5454 72.224 43.9214 71.9 44.2654 71.596C44.6174 71.284 44.9134 71.032 45.1534 70.84C45.4014 70.64 45.5654 70.54 45.6454 70.54C45.8134 70.54 45.9534 70.604 46.0654 70.732C46.1854 70.86 46.2454 71.052 46.2454 71.308C46.2454 71.452 46.2374 71.624 46.2214 71.824C46.5734 71.216 46.9814 70.716 47.4454 70.324C47.9094 69.924 48.3654 69.628 48.8134 69.436C49.2694 69.236 49.6574 69.136 49.9774 69.136C50.3374 69.136 50.5814 69.208 50.7094 69.352C50.8374 69.488 50.9014 69.632 50.9014 69.784C50.9014 69.872 50.8814 69.96 50.8414 70.048C50.8094 70.128 50.7214 70.216 50.5774 70.312C50.4414 70.408 50.2134 70.52 49.8934 70.648C49.4694 70.808 49.0654 70.996 48.6814 71.212C48.3054 71.428 47.9574 71.724 47.6374 72.1C47.3254 72.468 47.0414 72.964 46.7854 73.588C46.5374 74.204 46.3294 74.996 46.1614 75.964C46.1054 76.236 46.0174 76.42 45.8974 76.516C45.7774 76.62 45.6374 76.672 45.4774 76.672C45.4614 76.672 45.4334 76.672 45.3934 76.672C45.3214 76.68 45.2454 76.672 45.1654 76.648C45.0934 76.632 45.0214 76.564 44.9494 76.444C44.8854 76.332 44.8334 76.136 44.7934 75.856C44.7534 75.576 44.7334 75.176 44.7334 74.656C44.7334 74.344 44.7454 74.016 44.7694 73.672C44.8014 73.32 44.8414 72.956 44.8894 72.58C44.4814 72.98 44.0454 73.384 43.5814 73.792C43.1174 74.2 42.6374 74.576 42.1414 74.92C41.6534 75.256 41.1734 75.528 40.7014 75.736C40.2374 75.944 39.8054 76.048 39.4054 76.048C38.8694 76.048 38.4294 75.876 38.0854 75.532C37.7494 75.18 37.5814 74.64 37.5814 73.912C37.5814 73.192 37.6774 72.54 37.8694 71.956C38.0694 71.364 38.3254 70.856 38.6374 70.432C38.9494 70.008 39.2814 69.684 39.6334 69.46C39.9934 69.228 40.3294 69.112 40.6414 69.112C41.3054 69.112 41.8094 69.272 42.1534 69.592C42.4974 69.904 42.6694 70.308 42.6694 70.804ZM39.2134 72.628C39.4214 72.524 39.6414 72.404 39.8734 72.268C40.1134 72.124 40.3374 71.976 40.5454 71.824C40.7534 71.664 40.9214 71.508 41.0494 71.356C41.1854 71.204 41.2534 71.06 41.2534 70.924C41.2534 70.7 41.1894 70.564 41.0614 70.516C40.9414 70.46 40.7774 70.432 40.5694 70.432C40.3534 70.432 40.1574 70.548 39.9814 70.78C39.8054 71.004 39.6534 71.284 39.5254 71.62C39.3974 71.956 39.2934 72.292 39.2134 72.628ZM59.196 76.168C58.964 76.168 58.788 76.096 58.668 75.952C58.556 75.808 58.5 75.612 58.5 75.364C58.5 75.164 58.508 74.992 58.524 74.848C58.54 74.704 58.572 74.552 58.62 74.392C58.668 74.224 58.728 74.02 58.8 73.78C58.88 73.532 58.98 73.216 59.1 72.832C59.172 72.608 59.26 72.316 59.364 71.956C59.476 71.588 59.588 71.188 59.7 70.756C59.812 70.316 59.904 69.876 59.976 69.436C60.056 68.988 60.096 68.576 60.096 68.2C60.096 67.944 60.04 67.708 59.928 67.492C59.184 68.228 58.48 69.188 57.816 70.372C57.16 71.556 56.576 72.932 56.064 74.5C55.912 74.892 55.736 75.156 55.536 75.292C55.336 75.42 55.144 75.484 54.96 75.484C54.904 75.484 54.82 75.452 54.708 75.388C54.596 75.316 54.492 75.188 54.396 75.004C54.3 74.82 54.252 74.56 54.252 74.224C54.252 74.144 54.272 74.044 54.312 73.924C54.352 73.796 54.412 73.66 54.492 73.516C54.564 73.1 54.616 72.656 54.648 72.184C54.688 71.704 54.712 71.228 54.72 70.756C54.736 70.276 54.744 69.828 54.744 69.412C54.744 69.092 54.72 68.812 54.672 68.572C54.28 69.068 53.908 69.668 53.556 70.372C53.204 71.076 52.884 71.824 52.596 72.616C52.316 73.408 52.084 74.184 51.9 74.944C51.852 75.128 51.796 75.3 51.732 75.46C51.668 75.612 51.572 75.736 51.444 75.832C51.324 75.92 51.148 75.964 50.916 75.964C50.66 75.964 50.468 75.86 50.34 75.652C50.212 75.444 50.148 75.168 50.148 74.824C50.148 74.56 50.204 74.22 50.316 73.804C50.428 73.38 50.58 72.92 50.772 72.424C50.964 71.92 51.184 71.408 51.432 70.888C51.688 70.36 51.956 69.852 52.236 69.364C52.516 68.876 52.8 68.44 53.088 68.056C53.384 67.664 53.664 67.356 53.928 67.132C54.2 66.9 54.448 66.784 54.672 66.784C54.68 66.784 54.692 66.784 54.708 66.784C54.884 66.784 55.044 66.8 55.188 66.832C55.34 66.856 55.472 66.94 55.584 67.084C55.704 67.22 55.808 67.448 55.896 67.768C55.984 68.088 56.06 68.54 56.124 69.124C56.14 69.268 56.152 69.44 56.16 69.64C56.168 69.832 56.172 70.032 56.172 70.24C56.436 69.648 56.724 69.092 57.036 68.572C57.356 68.052 57.684 67.592 58.02 67.192C58.364 66.792 58.704 66.48 59.04 66.256C59.376 66.032 59.688 65.92 59.976 65.92C60.312 65.92 60.624 66.004 60.912 66.172C61.2 66.332 61.432 66.604 61.608 66.988C61.784 67.372 61.872 67.896 61.872 68.56C61.872 69.264 61.808 69.948 61.68 70.612C61.552 71.268 61.392 71.888 61.2 72.472C61.008 73.056 60.816 73.592 60.624 74.08C60.432 74.56 60.272 74.976 60.144 75.328C60.04 75.576 59.92 75.78 59.784 75.94C59.648 76.092 59.452 76.168 59.196 76.168ZM65.0273 76.408C64.5313 76.408 64.1313 76.236 63.8273 75.892C63.5233 75.54 63.3713 74.976 63.3713 74.2C63.3713 73.704 63.4273 73.208 63.5393 72.712C63.6593 72.208 63.8233 71.732 64.0313 71.284C64.2473 70.828 64.4953 70.424 64.7753 70.072C65.0633 69.72 65.3793 69.444 65.7233 69.244C66.0673 69.036 66.4233 68.932 66.7913 68.932C67.4153 68.932 67.9033 69.1 68.2553 69.436C68.6073 69.772 68.7833 70.2 68.7833 70.72C68.7833 71.12 68.6713 71.484 68.4473 71.812C68.2313 72.132 67.9353 72.42 67.5593 72.676C67.1833 72.932 66.7633 73.164 66.2993 73.372C65.8353 73.58 65.3593 73.768 64.8713 73.936C64.8313 74.224 64.8113 74.48 64.8113 74.704C64.8113 74.84 64.8873 74.908 65.0393 74.908C65.3993 74.908 65.7833 74.852 66.1913 74.74C66.6073 74.62 67.0273 74.468 67.4513 74.284C67.8753 74.092 68.2833 73.896 68.6753 73.696C69.0673 73.488 69.4233 73.292 69.7433 73.108C70.0713 72.916 70.3393 72.764 70.5473 72.652C70.7633 72.532 70.9033 72.472 70.9673 72.472C71.1433 72.472 71.2713 72.524 71.3513 72.628C71.4313 72.732 71.4713 72.844 71.4713 72.964C71.4713 73.02 71.3633 73.144 71.1473 73.336C70.9393 73.528 70.6513 73.756 70.2833 74.02C69.9233 74.276 69.5153 74.544 69.0593 74.824C68.6113 75.096 68.1433 75.356 67.6553 75.604C67.1753 75.844 66.7073 76.036 66.2513 76.18C65.8033 76.332 65.3953 76.408 65.0273 76.408ZM65.0753 72.868C65.4033 72.676 65.7273 72.476 66.0473 72.268C66.3753 72.052 66.6473 71.812 66.8633 71.548C67.0793 71.276 67.1873 70.96 67.1873 70.6C67.1873 70.496 67.1593 70.428 67.1033 70.396C67.0473 70.356 66.9673 70.336 66.8633 70.336C66.5833 70.336 66.3273 70.46 66.0953 70.708C65.8713 70.956 65.6713 71.276 65.4953 71.668C65.3273 72.052 65.1873 72.452 65.0753 72.868ZM71.7922 76C71.6002 76 71.4082 75.936 71.2162 75.808C71.0322 75.672 70.8802 75.48 70.7602 75.232C70.6402 74.976 70.5802 74.668 70.5802 74.308C70.5802 73.828 70.6442 73.316 70.7722 72.772C70.9082 72.228 71.0722 71.684 71.2642 71.14C71.4562 70.596 71.6442 70.084 71.8282 69.604C71.9162 69.372 72.0242 69.216 72.1522 69.136C72.2802 69.048 72.4482 69.004 72.6562 69.004C73.1282 69.004 73.3642 69.24 73.3642 69.712C73.3642 69.792 73.3282 69.948 73.2562 70.18C73.1842 70.404 73.0882 70.68 72.9682 71.008C72.8562 71.336 72.7362 71.692 72.6082 72.076C72.4882 72.452 72.3762 72.836 72.2722 73.228C72.1762 73.612 72.1002 73.976 72.0442 74.32C72.2282 74.04 72.4322 73.692 72.6562 73.276C72.8882 72.852 73.1322 72.408 73.3882 71.944C73.6522 71.48 73.9162 71.048 74.1802 70.648C74.4442 70.24 74.7042 69.908 74.9602 69.652C75.2162 69.396 75.4602 69.268 75.6922 69.268C75.8922 69.268 76.0802 69.308 76.2562 69.388C76.4402 69.46 76.6002 69.604 76.7362 69.82C76.8722 70.028 76.9762 70.328 77.0482 70.72C77.1282 71.112 77.1682 71.628 77.1682 72.268C77.1682 72.588 77.1962 72.9 77.2522 73.204C77.3162 73.5 77.4202 73.748 77.5642 73.948C77.7082 74.14 77.9122 74.236 78.1762 74.236C78.6322 74.236 79.0402 74.152 79.4002 73.984C79.7602 73.816 80.0762 73.62 80.3482 73.396C80.6202 73.172 80.8482 72.976 81.0322 72.808C81.1442 72.696 81.2402 72.608 81.3202 72.544C81.4082 72.48 81.4802 72.448 81.5362 72.448C81.7042 72.448 81.8242 72.492 81.8962 72.58C81.9762 72.668 82.0162 72.788 82.0162 72.94C82.0162 73.02 81.9482 73.168 81.8122 73.384C81.6762 73.6 81.4842 73.848 81.2362 74.128C80.9962 74.4 80.7202 74.664 80.4082 74.92C80.0962 75.176 79.7602 75.388 79.4002 75.556C79.0402 75.724 78.6722 75.808 78.2962 75.808C77.6642 75.808 77.1402 75.696 76.7242 75.472C76.3162 75.24 76.0122 74.856 75.8122 74.32C75.6122 73.776 75.5122 73.036 75.5122 72.1C75.5122 72.076 75.5122 72.036 75.5122 71.98C75.5122 71.732 75.5082 71.512 75.5002 71.32C75.5002 71.128 75.4882 70.972 75.4642 70.852C75.3282 71.1 75.1642 71.396 74.9722 71.74C74.7882 72.084 74.5882 72.452 74.3722 72.844C74.1562 73.228 73.9322 73.608 73.7002 73.984C73.4682 74.352 73.2362 74.688 73.0042 74.992C72.7802 75.296 72.5642 75.54 72.3562 75.724C72.1482 75.908 71.9602 76 71.7922 76ZM89.7603 69.952C89.7603 70.048 89.7283 70.132 89.6643 70.204C89.6003 70.276 89.5203 70.332 89.4243 70.372C89.2883 70.428 89.0523 70.5 88.7163 70.588C88.3803 70.676 87.9723 70.776 87.4923 70.888C87.0203 71 86.5123 71.116 85.9683 71.236C85.4243 71.348 84.8803 71.456 84.3363 71.56C84.1283 72.328 83.9163 73.12 83.7003 73.936C83.4843 74.744 83.2683 75.54 83.0523 76.324C82.9723 76.604 82.8763 76.816 82.7643 76.96C82.6523 77.112 82.4603 77.188 82.1883 77.188C81.8923 77.188 81.6923 77.092 81.5883 76.9C81.4923 76.716 81.4803 76.464 81.5523 76.144C81.7603 75.272 81.9523 74.46 82.1283 73.708C82.3123 72.956 82.4603 72.348 82.5723 71.884C82.0923 71.964 81.6723 72.028 81.3123 72.076C80.9523 72.116 80.6963 72.132 80.5443 72.124C80.3763 72.108 80.2363 72.04 80.1243 71.92C80.0123 71.8 79.9603 71.652 79.9683 71.476C79.9843 71.316 80.0563 71.18 80.1843 71.068C80.3123 70.948 80.4643 70.876 80.6403 70.852C80.8883 70.828 81.2083 70.792 81.6003 70.744C81.9923 70.696 82.4243 70.64 82.8963 70.576C83.0003 70.168 83.1203 69.748 83.2563 69.316C83.3923 68.876 83.5323 68.456 83.6763 68.056C83.8283 67.648 83.9723 67.292 84.1083 66.988C84.2443 66.684 84.3683 66.464 84.4803 66.328C84.5683 66.224 84.6763 66.144 84.8043 66.088C84.9403 66.032 85.0723 66.004 85.2003 66.004C85.3683 66.004 85.5043 66.064 85.6083 66.184C85.7123 66.304 85.7643 66.444 85.7643 66.604C85.7643 66.668 85.7603 66.736 85.7523 66.808C85.7443 66.872 85.7283 66.936 85.7043 67C85.5523 67.4 85.3883 67.884 85.2123 68.452C85.0443 69.02 84.8683 69.644 84.6843 70.324C85.2843 70.236 85.8723 70.148 86.4483 70.06C87.0323 69.964 87.5603 69.876 88.0323 69.796C88.5123 69.708 88.8963 69.632 89.1843 69.568C89.3443 69.512 89.4803 69.524 89.5923 69.604C89.7043 69.676 89.7603 69.792 89.7603 69.952ZM89.9486 76.396C89.3806 76.396 88.9246 76.196 88.5806 75.796C88.2366 75.388 88.0646 74.844 88.0646 74.164C88.0646 73.948 88.0926 73.728 88.1486 73.504C88.2126 73.28 88.2886 73.072 88.3766 72.88C88.3286 72.808 88.2886 72.716 88.2566 72.604C88.2326 72.484 88.2206 72.344 88.2206 72.184C88.2206 71.664 88.3126 71.188 88.4966 70.756C88.6806 70.316 88.9286 69.936 89.2406 69.616C89.5526 69.296 89.8966 69.048 90.2726 68.872C90.6486 68.696 91.0286 68.608 91.4126 68.608C92.0686 68.608 92.6046 68.828 93.0206 69.268C93.4446 69.708 93.6566 70.392 93.6566 71.32C93.6566 71.784 93.5846 72.256 93.4406 72.736C93.2966 73.216 93.1006 73.676 92.8526 74.116C92.6126 74.548 92.3326 74.936 92.0126 75.28C91.7006 75.624 91.3646 75.896 91.0046 76.096C90.6526 76.296 90.3006 76.396 89.9486 76.396ZM89.7566 72.34C89.7966 72.428 89.8166 72.532 89.8166 72.652C89.8166 72.772 89.7926 72.896 89.7446 73.024C89.6966 73.152 89.6486 73.324 89.6006 73.54C89.5526 73.748 89.5286 74.048 89.5286 74.44C89.5286 74.544 89.5406 74.632 89.5646 74.704C89.5966 74.768 89.6646 74.8 89.7686 74.8C90.0406 74.8 90.2966 74.712 90.5366 74.536C90.7846 74.36 91.0046 74.128 91.1966 73.84C91.3966 73.552 91.5646 73.232 91.7006 72.88C91.8446 72.52 91.9526 72.156 92.0246 71.788C92.1046 71.412 92.1446 71.064 92.1446 70.744C92.1446 70.536 92.1046 70.392 92.0246 70.312C91.9446 70.232 91.8046 70.192 91.6046 70.192C91.3326 70.192 91.0526 70.28 90.7646 70.456C90.4846 70.624 90.2486 70.856 90.0566 71.152C89.8646 71.44 89.7686 71.768 89.7686 72.136C89.7686 72.208 89.7646 72.276 89.7566 72.34ZM95.5173 76.528C95.3173 76.528 95.1453 76.456 95.0013 76.312C94.8653 76.168 94.7973 75.96 94.7973 75.688C94.7973 75.568 94.8133 75.372 94.8453 75.1C94.8853 74.82 94.9333 74.5 94.9893 74.14C95.0533 73.78 95.1133 73.404 95.1693 73.012C95.2333 72.62 95.2853 72.248 95.3253 71.896C95.3733 71.544 95.4053 71.244 95.4213 70.996C95.4373 70.692 95.5173 70.476 95.6613 70.348C95.8053 70.212 95.9773 70.144 96.1773 70.144C96.3373 70.144 96.4813 70.184 96.6093 70.264C96.7453 70.336 96.8293 70.492 96.8613 70.732C96.9013 70.964 96.9053 71.3 96.8733 71.74C97.2253 71.1 97.5813 70.528 97.9413 70.024C98.3093 69.52 98.6933 69.12 99.0933 68.824C99.7573 68.32 100.357 68.068 100.893 68.068C101.197 68.068 101.397 68.136 101.493 68.272C101.589 68.408 101.637 68.548 101.637 68.692C101.637 68.788 101.613 68.876 101.565 68.956C101.525 69.036 101.437 69.12 101.301 69.208C101.165 69.296 100.957 69.412 100.677 69.556C100.301 69.748 99.9293 70 99.5613 70.312C99.2013 70.624 98.8413 71.024 98.4813 71.512C98.1213 72 97.7573 72.6 97.3893 73.312C97.0213 74.024 96.6413 74.872 96.2493 75.856C96.1773 76.128 96.0733 76.308 95.9373 76.396C95.8093 76.484 95.6693 76.528 95.5173 76.528Z" fill="black"/>
<defs>
<clipPath id="clip0_11_627">
<rect width="60" height="60" fill="white" transform="translate(24.25)"/>
</clipPath>
</defs>
</svg>
