<svg width="571" height="571" viewBox="0 0 571 571" fill="none" xmlns="http://www.w3.org/2000/svg">
<path d="M546.616 562.261H28.1747C24.6903 562.261 21.8394 559.41 21.8394 555.925V531.112C21.8394 527.627 24.6903 524.776 28.1747 524.776H546.616C550.1 524.776 552.951 527.627 552.951 531.112V555.925C552.951 559.41 550.1 562.261 546.616 562.261Z" fill="#F7F7F7"/>
<path d="M291.619 533.752C389.005 533.752 467.952 454.804 467.952 357.418C467.952 260.032 389.005 181.085 291.619 181.085C194.233 181.085 115.286 260.032 115.286 357.418C115.286 454.804 194.233 533.752 291.619 533.752Z" fill="#F3FAFF"/>
<path d="M510.188 481.96C513.936 472.404 517.737 461.793 514.2 452.184C513.356 449.861 512.036 447.38 512.828 445.004C513.883 441.784 518.107 440.675 519.48 437.613C521.063 434.234 518.582 430.327 519.216 426.684C519.849 422.989 523.492 420.56 527.029 419.24C530.567 417.92 534.42 417.076 537.271 414.647C542.709 409.896 542.076 401.396 540.861 394.216C539.647 387.089 538.75 378.641 543.976 373.626C534.368 375.474 524.548 377.374 516.206 382.443C507.865 387.511 501.213 396.486 501.688 406.253C501.952 411.163 503.853 416.389 501.635 420.719C499.207 425.417 492.713 427.265 491.076 432.281C489.176 438.035 494.825 443.315 497.042 448.964C499.154 454.296 498.151 460.262 498.626 465.911C499.101 471.612 502.058 478.053 507.707 478.898L510.188 481.96Z" fill="#FFBE55"/>
<path opacity="0.31" d="M510.188 481.96C513.936 472.404 517.737 461.793 514.2 452.184C513.356 449.861 512.036 447.38 512.828 445.004C513.883 441.784 518.107 440.675 519.48 437.613C521.063 434.234 518.582 430.327 519.216 426.684C519.849 422.989 523.492 420.56 527.029 419.24C530.567 417.92 534.42 417.076 537.271 414.647C542.709 409.896 542.076 401.396 540.861 394.216C539.647 387.089 538.75 378.641 543.976 373.626C534.368 375.474 524.548 377.374 516.206 382.443C507.865 387.511 501.213 396.486 501.688 406.253C501.952 411.163 503.853 416.389 501.635 420.719C499.207 425.417 492.713 427.265 491.076 432.281C489.176 438.035 494.825 443.315 497.042 448.964C499.154 454.296 498.151 460.262 498.626 465.911C499.101 471.612 502.058 478.053 507.707 478.898L510.188 481.96Z" fill="white"/>
<path d="M506.334 469.448C506.228 441.678 511.613 383.551 543.659 373.837" stroke="white" stroke-width="0.75" stroke-miterlimit="10" stroke-linecap="round"/>
<path d="M487.856 479.637C482.154 468.973 476.241 457.094 479.039 445.321C479.725 442.47 480.887 439.408 479.673 436.715C478.036 433.125 472.915 432.333 470.856 428.955C468.586 425.259 470.909 420.296 469.642 416.126C468.375 411.849 463.782 409.579 459.505 408.47C455.229 407.415 450.583 406.992 446.887 404.458C439.866 399.654 439.443 389.57 439.866 381.07C440.288 372.57 440.182 362.539 433.372 357.418C444.881 358.263 456.654 359.16 467.108 363.965C477.561 368.769 486.642 378.378 487.381 389.887C487.75 395.641 486.219 402.029 489.44 406.834C492.924 412.008 500.79 413.275 503.43 418.924C506.439 425.417 500.579 432.333 498.731 439.25C497.042 445.743 498.995 452.607 499.207 459.311C499.418 466.016 496.831 473.988 490.337 475.783L487.856 479.637Z" fill="#FFBE55"/>
<path d="M490.654 464.432C486.958 431.858 472.704 364.545 433.794 357.629" stroke="white" stroke-width="0.75" stroke-miterlimit="10" stroke-linecap="round"/>
<path d="M523.914 542.199H473.76C470.275 542.199 467.424 539.348 467.424 535.863L463.201 463.535C463.201 460.051 466.052 457.2 469.536 457.2H528.138C531.622 457.2 534.473 460.051 534.473 463.535L530.25 535.863C530.25 539.348 527.399 542.199 523.914 542.199Z" fill="#CCE9FF"/>
<path d="M69.1144 312.492L101.477 307.585L123.48 452.695L91.1172 457.602L69.1144 312.492Z" fill="#FFBE55"/>
<path d="M85.2845 310.052L101.466 307.599L123.469 452.709L107.287 455.162L85.2845 310.052Z" fill="#FFBE55"/>
<path d="M101.506 307.739L69.1432 312.649L76.7456 293.167L81.0748 282.186L88.466 291.425L101.506 307.739Z" fill="#FFEBC2"/>
<path d="M88.466 291.425L76.7456 293.167L81.0747 282.186L88.466 291.425Z" fill="#0E538C"/>
<path d="M127.489 274.363L160.091 277.282L147 423.463L114.399 420.544L127.489 274.363Z" fill="#FFBE55"/>
<path d="M143.821 275.834L160.122 277.294L147.032 423.475L130.731 422.016L143.821 275.834Z" fill="#FFBE55"/>
<path d="M160.108 277.435L127.481 274.531L139.518 257.426L146.329 247.764L151.291 258.481L160.108 277.435Z" fill="#FFEBC2"/>
<path d="M151.291 258.481L139.518 257.426L146.329 247.764L151.291 258.481Z" fill="#0E538C"/>
<path d="M181.543 542.727H52.9354L36.0939 343.692H191.837L181.543 542.727Z" fill="#CCE9FF"/>
<path opacity="0.5" d="M113.966 542.727H181.543L191.837 343.692H113.966V542.727Z" fill="#CCE9FF"/>
<path d="M142.211 486.553H469.008V531.481H142.211V486.553Z" fill="#FFEBC2"/>
<path d="M143.583 486.553V531.481H486.43V534.86C486.43 539.031 482.787 542.41 478.3 542.41H145.062C134.45 542.41 125.844 534.491 125.844 524.671V494.631C125.844 484.811 134.45 476.892 145.062 476.892H478.3C482.787 476.892 486.43 480.271 486.43 484.442V486.606H143.583V486.553Z" fill="#FFBE55"/>
<path d="M142.211 506.562H469.008V531.429H142.211V506.562Z" fill="#FFEBC2"/>
<path d="M184.446 431.858H450.002V470.926H184.446V431.858Z" fill="#CCE9FF"/>
<path d="M184.446 431.858V470.926H460.033V473.883C460.033 477.525 457.077 480.429 453.487 480.429H185.608C177.108 480.429 170.192 473.513 170.192 465.013V438.88C170.192 430.38 177.108 423.464 185.608 423.464H453.487C457.077 423.464 460.033 426.42 460.033 430.011V431.911H184.446V431.858Z" fill="#2A94F4"/>
<path d="M299.221 298.869C295.578 294.065 295.262 287.466 298.693 282.45C301.439 278.438 303.286 273.475 303.075 269.832C302.653 263.286 298.588 257.267 293.044 253.677C285.759 248.926 276.045 248.239 268.178 251.935C260.312 255.631 254.61 263.55 253.607 272.155C252.868 278.332 254.293 285.09 251.126 290.475C248.803 294.329 244.526 296.599 240.303 298.13C236.026 299.608 231.539 300.611 227.632 302.882C223.725 305.152 220.399 309.059 220.452 313.599C220.505 317.031 222.458 320.198 222.669 323.577C222.986 328.54 219.502 332.922 215.806 336.195C212.058 339.468 207.781 342.319 205.247 346.595C201.076 353.67 203.03 363.226 208.309 369.561C213.589 375.896 221.508 379.434 229.427 381.492C251.073 387.194 273.88 383.499 296.212 383.129C303.128 383.024 310.203 383.235 316.907 381.492C323.612 379.75 330.159 375.738 332.957 369.403C335.808 363.067 334.382 355.359 330.581 349.605C326.78 343.85 320.814 339.679 314.532 336.723C309.991 334.558 305.134 332.869 301.439 329.49C297.743 326.111 295.578 320.357 298.06 315.975C299.01 314.285 300.594 312.965 301.491 311.276C303.286 308.003 302.547 303.832 300.541 300.664C300.172 300.136 299.749 299.556 299.221 298.869Z" fill="#0E538C"/>
<path d="M184.446 449.281H450.002V470.926H184.446V449.281Z" fill="#CCE9FF"/>
<path d="M304.29 393.846L337.022 417.076L377.146 499.963H369.755L324.879 426.579C324.879 426.579 309.569 427.107 304.29 422.355C299.01 417.604 268.653 397.014 268.653 397.014L304.29 393.846Z" fill="#0B4870"/>
<path d="M246.374 387.194C240.408 403.349 244.632 426.051 264.694 427.107C284.756 428.163 291.091 427.107 291.091 427.107L330.159 506.298H339.134L308.513 417.604L271.293 397.014L246.374 387.194Z" fill="#0E538C"/>
<path d="M276.836 295.121C282.116 301.984 294.787 320.99 299.538 342.108C304.29 363.226 317.488 393.846 317.488 393.846H302.178L287.395 343.692L273.669 296.705L276.836 295.121Z" fill="#4EA3FB"/>
<path d="M293.097 267.087C293.889 280.022 288.24 288.891 280.163 289.313C272.085 289.736 266.806 278.015 269.234 267.087C274.883 257.373 282.591 256.581 282.591 256.581H287.448L293.097 267.087Z" fill="#FFE3CA"/>
<path d="M287.712 259.379C286.234 263.919 282.961 267.826 278.737 270.043C274.514 272.261 269.445 272.789 264.852 271.416L276.361 254.997H286.234L295.684 262.494L294.259 271.099C290.563 268.301 287.712 259.379 287.712 259.379Z" fill="#0E538C"/>
<path d="M277.734 287.782C276.045 294.329 276.572 301.192 276.572 302.248C274.989 304.36 267.597 303.832 266.542 296.441C268.125 286.938 271.293 276.379 271.293 276.379L273.933 282.186L277.734 287.782Z" fill="#FFE3CA"/>
<path d="M267.597 290.844C260.998 293.009 238.824 303.04 237.769 305.152C239.352 310.959 247.272 397.014 247.272 397.014H283.172C283.172 397.014 278.42 349.499 281.06 346.331C283.7 343.164 292.147 332.077 291.091 330.493C290.035 328.909 276.625 294.857 276.625 294.857L267.597 290.844Z" fill="#2A94F4"/>
<path d="M237.769 305.152C232.595 309.111 210.843 344.748 217.707 363.754C224.57 382.76 247.008 393.952 247.008 393.952V383.499C247.008 383.499 228.794 369.033 229.849 358.474C230.905 347.915 243.576 326.269 243.576 326.269L237.769 305.152Z" fill="#4EA3FB"/>
<path d="M322.82 403.085H245.107C242.678 403.085 240.672 401.079 240.672 398.651L238.561 348.918C238.561 346.49 240.567 344.484 242.995 344.484H323.876C326.305 344.484 328.311 346.49 328.311 348.918L327.255 398.651C327.255 401.079 325.249 403.085 322.82 403.085Z" fill="#FFBE55"/>
<path d="M337.867 506.298C343.093 507.46 350.168 513.214 353.547 516.171C354.233 516.752 353.811 517.913 352.86 517.913C347.423 517.808 335.122 517.227 332.271 514.798C328.575 511.631 329.631 506.351 329.631 506.351H337.867V506.298ZM377.04 499.752C381.686 501.019 387.81 506.404 390.872 509.308C391.559 509.941 391.031 511.05 390.133 510.997C385.012 510.628 374.031 509.624 371.55 507.249C368.276 504.187 369.491 499.382 369.491 499.382L377.04 499.752Z" fill="#1A87D8"/>
<path d="M283.7 381.704C288.073 381.704 291.619 378.158 291.619 373.784C291.619 369.411 288.073 365.865 283.7 365.865C279.326 365.865 275.781 369.411 275.781 373.784C275.781 378.158 279.326 381.704 283.7 381.704Z" fill="white"/>
<path d="M214.011 486.237L203.98 480.429L193.949 486.237V449.281H214.011V486.237ZM369.543 267.404C369.543 268.407 369.174 269.304 368.54 270.043C369.174 270.73 369.543 271.68 369.543 272.683V275.956C369.543 276.643 369.332 277.329 369.015 277.91C369.332 278.491 369.543 279.177 369.543 279.863V283.136C369.543 285.301 367.801 287.043 365.637 287.043H331.637C329.472 287.043 327.73 285.301 327.73 283.136V279.81C327.73 279.124 327.941 278.438 328.258 277.857C327.941 277.276 327.73 276.59 327.73 275.904V272.63C327.73 271.627 328.1 270.73 328.733 269.991C328.1 269.304 327.73 268.354 327.73 267.351V264.078C327.73 261.913 329.472 260.171 331.637 260.171H365.637C367.801 260.171 369.543 261.913 369.543 264.078V267.404ZM396.68 193.386C396.68 212.445 385.593 228.864 369.543 236.677V254.416C369.543 255.736 368.435 256.845 367.115 256.845H330.159C328.839 256.845 327.73 255.736 327.73 254.416V236.677C311.681 228.917 300.594 212.445 300.594 193.386C300.594 166.83 322.081 145.343 348.637 145.343C375.192 145.343 396.68 166.883 396.68 193.386Z" fill="#FFBE55"/>
<path opacity="0.23" d="M365.003 270.307H332.799M365.003 277.699H332.799" stroke="#7F7F7F" stroke-width="2" stroke-miterlimit="10" stroke-linecap="round"/>
<path d="M356.873 199.299C356.292 198.771 355.447 198.507 354.55 198.613C353.441 198.718 352.385 199.352 351.699 200.249C351.118 201.041 350.801 201.991 350.643 202.889C350.168 202.625 349.64 202.361 349.165 202.044L349.006 201.939H348.32L348.162 202.044C347.634 202.361 347.159 202.625 346.683 202.889C346.525 201.991 346.208 201.041 345.628 200.249C344.994 199.352 343.885 198.718 342.777 198.613C341.879 198.507 341.087 198.771 340.454 199.299C339.662 200.038 339.398 201.094 339.662 202.203C340.084 203.681 341.298 204.895 342.724 205.159C343.621 205.318 344.466 205.265 345.364 205.054C346.683 222.212 347.211 239.581 346.842 256.739H348.426C348.795 239.528 348.267 222.106 346.947 204.948C346.947 204.79 346.947 204.631 346.895 204.473C347.528 204.209 348.109 203.892 348.69 203.523C349.27 203.839 349.851 204.209 350.485 204.473C350.485 204.631 350.485 204.79 350.432 204.948C349.112 222.106 348.584 239.528 348.954 256.739H350.537C350.168 239.581 350.696 222.159 352.016 205.054C352.86 205.265 353.758 205.37 354.655 205.159C356.028 204.895 357.295 203.681 357.718 202.203C357.929 201.094 357.665 200.038 356.873 199.299ZM342.988 203.681C342.196 203.523 341.404 202.731 341.14 201.833C341.034 201.464 340.982 200.883 341.457 200.513C341.721 200.249 342.09 200.196 342.354 200.196H342.566C343.199 200.249 343.885 200.619 344.308 201.2C344.783 201.833 345.047 202.625 345.152 203.523C344.413 203.734 343.727 203.787 342.988 203.681ZM356.134 201.833C355.87 202.731 355.131 203.523 354.286 203.681C353.6 203.839 352.86 203.734 352.174 203.523C352.332 202.625 352.544 201.833 353.019 201.2C353.388 200.672 354.075 200.302 354.761 200.196C355.078 200.144 355.5 200.196 355.87 200.513C356.239 200.883 356.186 201.464 356.134 201.833Z" fill="white"/>
<path d="M335.966 154.16C324.351 158.383 305.345 173.694 306.929 198.507" stroke="white" stroke-width="4" stroke-miterlimit="10" stroke-linecap="round"/>
<path d="M272.349 240.215C279.784 240.215 285.812 234.187 285.812 226.752C285.812 219.317 279.784 213.289 272.349 213.289C264.914 213.289 258.886 219.317 258.886 226.752C258.886 234.187 264.914 240.215 272.349 240.215Z" fill="#FFBE55"/>
<path d="M416.478 188.476C419.831 188.476 422.549 185.758 422.549 182.405C422.549 179.052 419.831 176.333 416.478 176.333C413.125 176.333 410.406 179.052 410.406 182.405C410.406 185.758 413.125 188.476 416.478 188.476Z" fill="#FFBE55"/>
<path d="M396.68 287.73C402.22 287.73 406.711 283.239 406.711 277.699C406.711 272.159 402.22 267.668 396.68 267.668C391.14 267.668 386.649 272.159 386.649 277.699C386.649 283.239 391.14 287.73 396.68 287.73Z" fill="#FFBE55"/>
<path d="M300.594 147.824C306.134 147.824 310.625 143.333 310.625 137.793C310.625 132.253 306.134 127.762 300.594 127.762C295.054 127.762 290.563 132.253 290.563 137.793C290.563 143.333 295.054 147.824 300.594 147.824Z" fill="#FFBE55"/>
<path opacity="0.14" d="M214.011 486.237L203.98 480.429L193.949 486.237V449.281H214.011V486.237Z" fill="#0C0C0C"/>
</svg>
